<?xml version="1.0" encoding="UTF-8"?>
<svg width="188px" height="58px" viewBox="0 0 188 58" version="1.1" xmlns="http://www.w3.org/2000/svg" xmlns:xlink="http://www.w3.org/1999/xlink">
    <!-- Generator: Sketch 61.2 (89653) - https://sketch.com -->
    <title>Artboard</title>
    <desc>Created with Sketch.</desc>
    <g id="Artboard" stroke="none" stroke-width="1" fill="none" fill-rule="evenodd">
        <g id="Acme" transform="translate(-3.000000, -68.000000)" fill="#444444">
            <path d="M23.713,69.462 L3.094,124.951 L18.862,124.951 L21.591,117.067 L33.72,117.067 L33.72,124.951 L49.184,124.951 L49.184,69.462 L23.713,69.462 Z M33.416,100.997 L27.049,100.997 L33.416,87.655 L33.416,100.997 L33.416,100.997 Z" id="Fill-2"></path>
            <path d="M94.97,68.856 C94.97,68.856 79.809,68.856 70.409,68.856 C62.222,68.856 59.493,79.468 59.493,79.468 L53.732,112.519 C53.732,112.519 51.61,124.951 62.222,124.951 C72.532,124.951 85.267,124.951 85.267,124.951 L87.693,108.577 L75.261,108.577 C75.261,108.577 69.803,109.79 70.712,103.726 C71.016,102.816 73.138,90.687 73.138,90.687 C73.138,90.687 73.745,86.442 76.474,86.442 C77.686,86.442 91.938,86.442 91.938,86.442 L94.97,68.856" id="Fill-3"></path>
            <polyline id="Fill-4" points="102.247 69.159 90.725 124.951 105.886 124.951 111.041 101.3 112.254 124.951 120.441 124.951 129.537 101.3 124.989 124.951 138.634 124.951 149.853 68.856 130.447 68.856 121.047 92.203 121.047 69.159 102.247 69.159"></polyline>
            <polyline id="Fill-5" points="146.214 124.951 156.827 68.856 188.059 68.856 185.633 84.926 169.259 84.926 168.349 90.384 184.117 90.384 181.691 102.513 165.62 102.21 164.711 107.668 180.781 107.668 177.446 124.951 146.214 124.951"></polyline>
            <path d="M185.33,124.042 C183.207,124.042 181.994,122.526 181.994,120.403 C181.994,118.28 183.207,116.764 185.33,116.764 C187.452,116.764 188.968,118.28 188.968,120.403 C188.968,122.526 187.452,124.042 185.33,124.042 Z M185.33,125.254 C188.059,125.254 190.181,122.829 190.181,120.403 C190.181,117.674 188.059,115.551 185.33,115.551 C182.601,115.551 180.478,117.674 180.478,120.403 C180.478,122.829 182.601,125.254 185.33,125.254 Z M186.543,120.706 C187.452,120.706 188.059,120.403 188.059,119.19 C188.059,117.977 187.149,117.674 185.936,117.674 L183.51,117.674 L183.51,122.829 L184.42,122.829 L184.42,120.706 L185.33,120.706 L186.543,122.829 L187.755,122.829 L186.543,120.706 Z M184.42,120.1 L184.42,118.584 L185.633,118.584 C186.239,118.584 186.846,118.584 186.846,119.19 C186.846,119.797 186.543,120.1 185.936,120.1 L184.42,120.1 L184.42,120.1 Z" id="Fill-6"></path>
        </g>
    </g>
</svg>