<svg xmlns="http://www.w3.org/2000/svg" width="288" height="76" viewBox="0 0 287.81 75.87"><defs><style>.cls-1{fill:#2ba55f}</style></defs><g id="Layer_2" data-name="Layer 2"><g id="Layer_1-2" data-name="Layer 1"><path d="M23.94 32.42h-7.49v-4.14a9.94 9.94 0 0 1-2.76 3.25A7.47 7.47 0 0 1 9 32.9a8.27 8.27 0 0 1-6.55-2.81A11.33 11.33 0 0 1 0 22.39a14.56 14.56 0 0 1 2.24-7.9q2.23-3.56 7.23-3.56c3.24 0 5.56 1.26 7 3.77V3.25h-4.88V0h9v29.22h3.39Zm-7.49-9.7v-2.55a5.9 5.9 0 0 0-1.79-4.24 5.75 5.75 0 0 0-4.1-1.6 5.31 5.31 0 0 0-4.65 2.26 9.49 9.49 0 0 0-1.57 5.56A7.93 7.93 0 0 0 6 27.62a5.44 5.44 0 0 0 4.2 1.88 5.33 5.33 0 0 0 4.4-2.21 8 8 0 0 0 1.85-4.57ZM37.14 32.42h-11v-3.2h3.46V14.61H26v-3.25h7.73v17.86h3.4Zm-7.83-26V1.55h4.29v4.86ZM63.43 14.61h-3.25v17.3a11.44 11.44 0 0 1-2.75 8q-2.76 3-8 3a12.41 12.41 0 0 1-6-1.48 7.7 7.7 0 0 1-3.72-4.78L42.93 35a6.52 6.52 0 0 0 2.74 3.39 7.58 7.58 0 0 0 3.91 1.08 6.08 6.08 0 0 0 4.66-2 8.06 8.06 0 0 0 1.84-5.7v-3.49a9 9 0 0 1-2.68 3.06 7.76 7.76 0 0 1-4.67 1.27A8.85 8.85 0 0 1 42.3 30c-1.78-1.75-2.67-4.28-2.67-7.61a14 14 0 0 1 2.37-7.9 8 8 0 0 1 7.12-3.56c3.26 0 5.59 1.24 7 3.73v-3.3h7.35Zm-7.35 8.29v-2.73a5.56 5.56 0 0 0-1.69-4.24 5.76 5.76 0 0 0-4.1-1.6 5.16 5.16 0 0 0-4.62 2.24 9.62 9.62 0 0 0-1.51 5.53q0 3.63 1.62 5.38a5.27 5.27 0 0 0 4 1.74 5.66 5.66 0 0 0 4.52-2 7 7 0 0 0 1.78-4.32ZM76.72 32.42h-11v-3.2h3.44V14.61H65.6v-3.25h7.73v17.86h3.39Zm-7.82-26V1.55h4.29v4.86ZM95.48 26.49q-.9 6.41-7.07 6.41a6.91 6.91 0 0 1-5.06-1.77 6.57 6.57 0 0 1-1.82-4.93V14.52h-3.25v-3.16h3.25V4.71h4.1v6.65h8.06v3.16h-8.06v11.07c0 2.51 1.09 3.77 3.25 3.77a3.8 3.8 0 0 0 2.12-.68c.69-.46 1.17-1.52 1.46-3.18ZM99.2 13a14.3 14.3 0 0 1 3.8-1.58 17.32 17.32 0 0 1 4.07-.45 8.63 8.63 0 0 1 5.68 1.75q2.1 1.74 2.1 5.37v9.76q0 2.07 1.65 2.07a3.45 3.45 0 0 0 1.27-.24v2.45a5.73 5.73 0 0 1-3.06.81q-3.83 0-4.06-4.25a9.81 9.81 0 0 1-2.71 3 7 7 0 0 1-4.31 1.32 8.17 8.17 0 0 1-4.31-1.32q-2.09-1.43-2.1-4.69 0-4 3.14-5.21a18 18 0 0 1 6.71-1.25 28.19 28.19 0 0 1 3.63.19v-1.6a7.17 7.17 0 0 0-.8-3.53c-.53-1-1.73-1.46-3.58-1.46a8.33 8.33 0 0 0-3.82.8l-.8 3.44-3.34-.38Zm11.5 11.36v-1.27c-.56-.06-1.15-.12-1.76-.16s-1.24-.07-1.87-.07a10 10 0 0 0-3.86.7 2.85 2.85 0 0 0-1.7 2.93 2.82 2.82 0 0 0 1.06 2.45 4.12 4.12 0 0 0 2.43.75 5.88 5.88 0 0 0 3.77-1.41 5.37 5.37 0 0 0 1.93-3.96ZM130.5 32.42h-10.94v-3.2H123v-26h-3.54V0h7.68v29.22h3.4ZM132 32.42v-5.84h5.37v5.84ZM165.23 32.42h-7.49v-4.14a9.94 9.94 0 0 1-2.74 3.25 7.47 7.47 0 0 1-4.69 1.37 8.27 8.27 0 0 1-6.55-2.81c-1.64-1.87-2.45-4.44-2.45-7.7a14.48 14.48 0 0 1 2.24-7.9q2.24-3.56 7.23-3.56c3.24 0 5.56 1.26 7 3.77V3.25h-4.86V0h9v29.22h3.39Zm-7.49-9.7v-2.55a5.9 5.9 0 0 0-1.74-4.24 5.77 5.77 0 0 0-4.11-1.6 5.29 5.29 0 0 0-4.64 2.26 9.49 9.49 0 0 0-1.58 5.56 7.93 7.93 0 0 0 1.7 5.47 5.44 5.44 0 0 0 4.2 1.88 5.35 5.35 0 0 0 4.4-2.21 8 8 0 0 0 1.77-4.57ZM178.42 32.42h-11v-3.2h3.44V14.61h-3.56v-3.25h7.7v17.86h3.39Zm-7.82-26V1.55h4.29v4.86ZM204.72 14.61h-3.25v17.3a11.4 11.4 0 0 1-2.76 8c-1.84 2-4.48 3-7.94 3a12.41 12.41 0 0 1-6-1.48 7.7 7.7 0 0 1-3.77-4.76l3.2-1.65a6.55 6.55 0 0 0 2.8 3.39 7.62 7.62 0 0 0 3.92 1.08 6.08 6.08 0 0 0 4.66-2 8.06 8.06 0 0 0 1.84-5.7v-3.51a8.9 8.9 0 0 1-2.69 3.06 7.71 7.71 0 0 1-4.73 1.27 8.87 8.87 0 0 1-6.42-2.61c-1.77-1.75-2.66-4.28-2.66-7.61a14 14 0 0 1 2.36-7.9 8 8 0 0 1 7.12-3.56c3.26 0 5.59 1.24 7 3.73v-3.3h7.35Zm-7.35 8.29v-2.73a5.57 5.57 0 0 0-1.7-4.24 5.73 5.73 0 0 0-4.1-1.6 5.18 5.18 0 0 0-4.57 2.24 9.7 9.7 0 0 0-1.5 5.53q0 3.63 1.62 5.38a5.25 5.25 0 0 0 4 1.74 5.66 5.66 0 0 0 4.53-2 7 7 0 0 0 1.72-4.32ZM232.29 32.42h-10.93v-3.2h3.39v-9.1c0-2.13-.41-3.65-1.22-4.54a4.2 4.2 0 0 0-3.26-1.35 5.31 5.31 0 0 0-4.19 1.77 6.26 6.26 0 0 0-1.65 4v9.19h3.39v3.2h-10.93v-3.2h3.39V14.61h-3.53v-3.25h7.68v3.58a8.27 8.27 0 0 1 12.35-2.12q2.11 1.89 2.12 5.89v10.51h3.39ZM245.3 32.42h-11v-3.2h3.44V14.61h-3.58v-3.25h7.73v17.86h3.39Zm-7.82-26V1.55h4.29v4.86ZM264.06 26.49q-.9 6.41-7.07 6.41a7 7 0 0 1-5.07-1.77 6.56 6.56 0 0 1-1.81-4.93V14.52h-3.26v-3.16h3.26V4.71h4.1v6.65h8.06v3.16h-8.06v11.07q0 3.77 3.25 3.77a3.77 3.77 0 0 0 2.07-.68c.69-.46 1.18-1.52 1.46-3.18ZM287.81 14.61h-2.36l-7.26 17.81-2.59 6.74h3.4v3.3h-11v-3.3h3.72l2.45-6.69-7.57-17.86h-2.4v-3.25h10v3.25H271l5.42 12.82h.28l4.67-12.82h-3v-3.25h9.38Z"/><g><path class="cls-1" d="M153.31 75.4h-10.94v-3.2h3.4v-26h-3.54V43h7.68v29.2h3.4ZM157.92 55.94a14 14 0 0 1 3.8-1.58 17.32 17.32 0 0 1 4.07-.45 8.61 8.61 0 0 1 5.68 1.74 6.61 6.61 0 0 1 2.1 5.38v9.75c0 1.39.55 2.08 1.65 2.08a3.45 3.45 0 0 0 1.27-.24v2.45a5.82 5.82 0 0 1-3.06.8q-3.82 0-4.06-4.24a9.81 9.81 0 0 1-2.71 3 7 7 0 0 1-4.31 1.32 8.17 8.17 0 0 1-4.31-1.32q-2.15-1.32-2.14-4.62 0-4 3.13-5.2a17.83 17.83 0 0 1 6.71-1.25 28.19 28.19 0 0 1 3.63.19v-1.64a7.17 7.17 0 0 0-.8-3.53c-.53-1-1.73-1.46-3.58-1.46a8.21 8.21 0 0 0-3.82.8l-.8 3.44-3.29-.36Zm11.5 11.35v-1.22l-1.76-.17c-.62 0-1.24-.07-1.87-.07a10 10 0 0 0-3.86.71 2.84 2.84 0 0 0-1.7 2.92 2.81 2.81 0 0 0 1.06 2.45 4.06 4.06 0 0 0 2.43.76 5.83 5.83 0 0 0 3.77-1.42 5.33 5.33 0 0 0 1.93-3.96ZM201.19 64.37a14.67 14.67 0 0 1-2.26 7.9q-2.27 3.6-7.22 3.6-5.13 0-7.21-3.86c0 .25-.1.82-.21 1.69s-.18 1.45-.21 1.7h-4.15c.16-1 .32-2 .47-3.06a21.31 21.31 0 0 0 .24-3.16v-23h-3.39V43h7.54v15.6a9.83 9.83 0 0 1 2.66-3.28 7.33 7.33 0 0 1 4.74-1.39 8.43 8.43 0 0 1 6.45 2.73c1.7 1.81 2.55 4.34 2.55 7.71Zm-4.34.33a8.08 8.08 0 0 0-1.67-5.51A5.35 5.35 0 0 0 191 57.3a5.43 5.43 0 0 0-4.53 2.12 7.39 7.39 0 0 0-1.69 4.43v2.36a6.25 6.25 0 0 0 1.69 4.45 5.62 5.62 0 0 0 4.29 1.82 5.13 5.13 0 0 0 4.57-2.26 9.7 9.7 0 0 0 1.52-5.52Z"/></g></g></g></svg>